<svg width="64" height="64" viewBox="0 0 64 64" xmlns="http://www.w3.org/2000/svg">
  <!-- Gradient Definition -->
  <defs>
    <linearGradient id="gradient1" x1="0" y1="0" x2="64" y2="64" gradientUnits="userSpaceOnUse">
      <stop offset="0%" stop-color="#a855f7"/>
      <stop offset="50%" stop-color="#ec4899"/>
      <stop offset="100%" stop-color="#fb923c"/>
    </linearGradient>
    
    <linearGradient id="gradient2" x1="0" y1="0" x2="40" y2="40" gradientUnits="userSpaceOnUse">
      <stop offset="0%" stop-color="#ffffff"/>
      <stop offset="100%" stop-color="#fdf2f8"/>
    </linearGradient>
  </defs>
  
  <!-- Background Circle with Gradient -->
  <circle cx="32" cy="32" r="32" fill="url(#gradient1)"/>
  
  <!-- Face Circle -->
  <circle cx="32" cy="28" r="14" fill="url(#gradient2)" opacity="0.9"/>
  
  <!-- Eyes -->
  <circle cx="27" cy="26" r="2" fill="#a855f7"/>
  <circle cx="37" cy="26" r="2" fill="#a855f7"/>
  
  <!-- Smile -->
  <path d="M 26 32 Q 32 36 38 32" stroke="#ec4899" stroke-width="2" stroke-linecap="round" fill="none"/>
  
  <!-- Color Palette Dots -->
  <circle cx="16" cy="48" r="3" fill="#FFD700"/>
  <circle cx="26" cy="52" r="3" fill="#FF69B4"/>
  <circle cx="38" cy="52" r="3" fill="#87CEEB"/>
  <circle cx="48" cy="48" r="3" fill="#98FB98"/>
  
  <!-- Sparkles -->
  <path d="M 12 16 L 13 18 L 15 19 L 13 20 L 12 22 L 11 20 L 9 19 L 11 18 Z" fill="white" opacity="0.8"/>
  <path d="M 52 12 L 53 14 L 55 15 L 53 16 L 52 18 L 51 16 L 49 15 L 51 14 Z" fill="white" opacity="0.8"/>
</svg>
